<svg width="32" height="32" viewBox="0 0 32 32" fill="none" xmlns="http://www.w3.org/2000/svg">
<g clip-path="url(#clip0_126_935)">
<path d="M16 32C24.8366 32 32 24.8366 32 16C32 7.16344 24.8366 0 16 0C7.16344 0 0 7.16344 0 16C0 24.8366 7.16344 32 16 32Z" fill="#5CB85F"/>
<path d="M16.0001 18.5C19.2217 18.5 21.8334 15.8883 21.8334 12.6667C21.8334 9.44504 19.2217 6.83337 16.0001 6.83337C12.7784 6.83337 10.1667 9.44504 10.1667 12.6667C10.1667 15.8883 12.7784 18.5 16.0001 18.5Z" stroke="white" stroke-width="2" stroke-linecap="round" stroke-linejoin="round"/>
<path d="M12.8416 17.575L11.8333 25.1667L15.9999 22.6667L20.1666 25.1667L19.1583 17.5667" stroke="white" stroke-width="2" stroke-linecap="round" stroke-linejoin="round"/>
</g>
<defs>
<clipPath id="clip0_126_935">
<rect width="32" height="32" fill="white"/>
</clipPath>
</defs>
</svg>
