<svg width="32" height="32" viewBox="0 0 32 32" fill="none" xmlns="http://www.w3.org/2000/svg">
<g clip-path="url(#clip0_131_1072)">
<path d="M16 32C24.8366 32 32 24.8366 32 16C32 7.16344 24.8366 0 16 0C7.16344 0 0 7.16344 0 16C0 24.8366 7.16344 32 16 32Z" fill="#0D28A6"/>
<path d="M21 7.66663H18.5C17.395 7.66663 16.3352 8.10561 15.5538 8.88701C14.7724 9.66842 14.3334 10.7282 14.3334 11.8333V14.3333H11.8334V17.6666H14.3334V24.3333H17.6667V17.6666H20.1667L21 14.3333H17.6667V11.8333C17.6667 11.6123 17.7545 11.4003 17.9108 11.244C18.0671 11.0878 18.279 11 18.5 11H21V7.66663Z" stroke="white" stroke-linecap="round" stroke-linejoin="round"/>
</g>
<defs>
<clipPath id="clip0_131_1072">
<rect width="32" height="32" fill="white"/>
</clipPath>
</defs>
</svg>
