<svg width="32" height="32" viewBox="0 0 32 32" fill="none" xmlns="http://www.w3.org/2000/svg">
<g clip-path="url(#clip0_131_1083)">
<path d="M16 32C24.8366 32 32 24.8366 32 16C32 7.16344 24.8366 0 16 0C7.16344 0 0 7.16344 0 16C0 24.8366 7.16344 32 16 32Z" fill="#0D28A6"/>
<path d="M9.33329 9.33337H22.6666C23.5833 9.33337 24.3333 10.0834 24.3333 11V21C24.3333 21.9167 23.5833 22.6667 22.6666 22.6667H9.33329C8.41663 22.6667 7.66663 21.9167 7.66663 21V11C7.66663 10.0834 8.41663 9.33337 9.33329 9.33337Z" stroke="white" stroke-linecap="round" stroke-linejoin="round"/>
<path d="M24.3333 11L16 16.8333L7.66663 11" stroke="white" stroke-linecap="round" stroke-linejoin="round"/>
</g>
<defs>
<clipPath id="clip0_131_1083">
<rect width="32" height="32" fill="white"/>
</clipPath>
</defs>
</svg>
