<svg width="32" height="32" viewBox="0 0 32 32" fill="none" xmlns="http://www.w3.org/2000/svg">
<g clip-path="url(#clip0_126_931)">
<path d="M16 32C24.8366 32 32 24.8366 32 16C32 7.16344 24.8366 0 16 0C7.16344 0 0 7.16344 0 16C0 24.8366 7.16344 32 16 32Z" fill="#0D28A6"/>
<path d="M16 24.3333C20.6023 24.3333 24.3333 20.6024 24.3333 16C24.3333 11.3976 20.6023 7.66663 16 7.66663C11.3976 7.66663 7.66663 11.3976 7.66663 16C7.66663 20.6024 11.3976 24.3333 16 24.3333Z" stroke="white" stroke-width="2" stroke-linecap="round" stroke-linejoin="round"/>
<path d="M16 11V16L19.3333 17.6667" stroke="white" stroke-width="2" stroke-linecap="round" stroke-linejoin="round"/>
</g>
<defs>
<clipPath id="clip0_126_931">
<rect width="32" height="32" fill="white"/>
</clipPath>
</defs>
</svg>
